<svg width="111" height="35" viewBox="0 0 111 35" fill="none" xmlns="http://www.w3.org/2000/svg">
<path id="Ellipse 5" d="M109.797 17.1145C109.814 19.1963 108.447 21.2873 105.727 23.283C103.019 25.2702 99.0596 27.0927 94.1165 28.6446C84.2366 31.7465 70.539 33.7329 55.3709 33.8537C40.2028 33.9744 26.4753 32.2064 16.5472 29.2623C11.5801 27.7893 7.59225 26.0301 4.85287 24.0863C2.10185 22.1341 0.701404 20.0652 0.684827 17.9834C0.668249 15.9016 2.03557 13.8105 4.75515 11.8148C7.46323 9.82759 11.4225 8.00514 16.3656 6.45324C26.2455 3.35138 39.9431 1.36497 55.1112 1.24419C70.2793 1.1234 84.0068 2.89143 93.9349 5.83555C98.902 7.30853 102.89 9.06771 105.629 11.0116C108.38 12.9637 109.781 15.0327 109.797 17.1145Z" stroke="white"/>
</svg>
