<svg width="137" height="46" viewBox="0 0 137 46" fill="none" xmlns="http://www.w3.org/2000/svg">
<path id="Ellipse 5" d="M135.753 22.5649C135.776 25.4293 134.031 28.2545 130.663 30.9123C127.302 33.5651 122.395 35.9907 116.281 38.0528C104.056 42.1751 87.1127 44.808 68.3526 44.9573C49.5926 45.1067 32.6092 42.7441 20.3208 38.8169C14.1739 36.8525 9.2296 34.5053 5.82655 31.9064C2.41694 29.3025 0.62695 26.5055 0.60414 23.6411C0.581331 20.7767 2.32655 17.9515 5.69426 15.2937C9.0555 12.6409 13.9618 10.2153 20.0766 8.15321C32.3009 4.03088 49.2445 1.39806 68.0046 1.24867C86.7647 1.09929 103.748 3.46194 116.036 7.38908C122.183 9.35352 127.128 11.7007 130.531 14.2996C133.94 16.9035 135.73 19.7005 135.753 22.5649Z" stroke="white"/>
</svg>
